# xmcd CD database file
#
# Track frame offsets:
#	150
#	21440
#	45622
#	66915
#
# Disc length: 1213 seconds
#
# Revision: 0
# Processed by: cddbd v1.5PL3 Copyright (c) Steve Scherf et al.
# Submitted via: CDex 1.51
#
DISCID=3204bb04
DTITLE=SING LIKE TALKING - A Crown
DYEAR=2002
DGENRE=J-Pop
TTITLE0=A Crown
TTITLE1=Parallel Lines
TTITLE2=A Crown [Instrumental]
TTITLE3=Parallel Lines [Instrumental]
EXTD=YEAR: 2002
EXTT0=
EXTT1=
EXTT2=
EXTT3=
PLAYORDER=
